HIERARCHY
ROOT Hips
{
	OFFSET 0.00 0.00 0.00
	CHANNELS 6 Xposition Yposition Zposition Xrotation Yrotation Zrotation
	JOINT LeftUpLeg
	{
		OFFSET 3.28590 0.00000 0.00000
		CHANNELS 3 Xrotation Yrotation Zrotation
		JOINT LeftLeg
		{
			OFFSET 0.00000 -16.12946 0.00000
			CHANNELS 3 Xrotation Yrotation Zrotation
			JOINT LeftFoot
			{
				OFFSET 0.00000 -15.45666 0.00000
				CHANNELS 3 Xrotation Yrotation Zrotation
				JOINT LeftToeBase
				{
					OFFSET 0.00000 -1.41942 5.29737
					CHANNELS 3 Xrotation Yrotation Zrotation
					End Site
					{
						OFFSET 0.00000 0.00000 2.95275
					}
				}
			}
		}
	}
	JOINT RightUpLeg
	{
		OFFSET -3.28590 0.00000 0.00000
		CHANNELS 3 Xrotation Yrotation Zrotation
		JOINT RightLeg
		{
			OFFSET 0.00000 -16.12946 0.00000
			CHANNELS 3 Xrotation Yrotation Zrotation
			JOINT RightFoot
			{
				OFFSET 0.00000 -15.45666 0.00000
				CHANNELS 3 Xrotation Yrotation Zrotation
				JOINT RightToeBase
				{
					OFFSET 0.00000 -1.41942 5.29737
					CHANNELS 3 Xrotation Yrotation Zrotation
					End Site
					{
						OFFSET 0.00000 0.00000 2.95275
					}
				}
			}
		}
	}
	JOINT Spine
	{
		OFFSET 0.00000 0.03937 0.00000
		CHANNELS 3 Xrotation Yrotation Zrotation
		JOINT Spine1
		{
			OFFSET 0.00000 6.25455 0.00000
			CHANNELS 3 Xrotation Yrotation Zrotation
			JOINT Neck
			{
				OFFSET 0.00000 11.77789 0.00000
				CHANNELS 3 Xrotation Yrotation Zrotation
				JOINT Head
				{
					OFFSET 0.00000 7.25432 0.00000
					CHANNELS 3 Xrotation Yrotation Zrotation
					End Site
					{
						OFFSET 0.00000 4.52755 0.00000
					}
				}
			}
			JOINT LeftShoulder
			{
				OFFSET 0.00000 11.77789 0.00000
				CHANNELS 3 Xrotation Yrotation Zrotation
				JOINT LeftArm
				{
					OFFSET 8.12235 -0.00003 0.00000
					CHANNELS 3 Xrotation Yrotation Zrotation
					JOINT LeftForeArm
					{
						OFFSET 10.26986 -0.00004 0.00000
						CHANNELS 3 Xrotation Yrotation Zrotation
						JOINT LeftHand
						{
							OFFSET 10.02459 -0.00004 0.00000
							CHANNELS 3 Xrotation Yrotation Zrotation
							JOINT LeftHandThumb
							{
								OFFSET 0.00000 0.00000 0.00000
								CHANNELS 3 Xrotation Yrotation Zrotation
								End Site
								{
									OFFSET 0.00000 0.00000 3.93700
								}
							}
							JOINT L_Wrist_End
							{
								OFFSET 3.93700 -0.00001 0.00000
								CHANNELS 3 Xrotation Yrotation Zrotation
							}
						}
					}
				}
			}
			JOINT RightShoulder
			{
				OFFSET 0.00000 11.77789 0.00000
				CHANNELS 3 Xrotation Yrotation Zrotation
				JOINT RightArm
				{
					OFFSET -8.12235 -0.00003 0.00000
					CHANNELS 3 Xrotation Yrotation Zrotation
					JOINT RightForeArm
					{
						OFFSET -10.26986 -0.00004 0.00000
						CHANNELS 3 Xrotation Yrotation Zrotation
						JOINT RightHand
						{
							OFFSET -10.02459 -0.00004 0.00000
							CHANNELS 3 Xrotation Yrotation Zrotation
							JOINT RightHandThumb
							{
								OFFSET 0.00000 0.00000 0.00000
								CHANNELS 3 Xrotation Yrotation Zrotation
								End Site
								{
									OFFSET 0.00000 0.00000 3.93700
								}
							}
							JOINT R_Wrist_End
							{
								OFFSET -5.39369 -0.00002 0.00000
								CHANNELS 3 Xrotation Yrotation Zrotation
							}
						}
					}
				}
			}
		}
	}
}
MOTION
Frames: 12
Frame Time: 0.033332
 0.7852 32.6531 23.7348 -3.9302 15.9333 2.7335 -2.1984 -4.6184 -4.8299 8.5962 0.0000 0.0000 -23.1119 4.6752 -33.1711 11.2983 -0.0000 0.0000 -5.9886 -15.8326 -6.1261 65.0023 -0.0000 0.0000 -11.1806 -9.1754 10.8606 -12.5053 0.0000 0.0000 2.4668 -2.6752 5.3339 -3.7742 1.7443 -14.1610 2.9447 -6.4979 1.0844 -15.6976 -9.7522 1.0460 -25.1877 2.6691 10.4769 24.7325 -54.5491 -77.6888 -0.0001 -25.8623 -0.0000 -18.3219 3.8228 -7.1630 -0.0000 0.0000 -0.0000 -0.0000 0.0000 -0.0000 -3.5514 -14.2478 -4.5018 10.2916 24.6065 87.8060 -0.0001 15.6492 0.0000 -13.2559 6.2154 -1.4238 -0.0000 -0.0000 0.0000 -0.0000 -0.0000 0.0000
 0.9168 32.5343 22.7076 -3.9229 13.6107 3.6247 -3.9971 -4.5831 -6.3752 8.8350 -0.0000 0.0000 -22.2224 7.0017 -33.2268 11.6948 -0.0000 0.0000 -0.3920 -14.9621 -4.9154 65.6109 -0.0000 0.0000 -7.1905 -8.2874 13.9861 -11.1506 0.0000 -0.0000 1.7841 -0.9194 6.7162 -3.3904 3.1377 -16.8524 2.9718 -5.9161 0.5886 -15.4249 -10.9879 1.1281 -24.4723 4.6532 10.7566 30.9725 -56.2447 -72.7088 -0.0001 -22.1549 -0.0000 -16.2156 5.9230 -6.7449 -0.0000 -0.0000 0.0000 -0.0000 -0.0000 0.0000 -4.3480 -12.6654 -5.2126 7.6922 28.0248 87.6365 -0.0001 17.7141 0.0000 -13.3077 6.8984 -1.5145 -0.0000 -0.0000 0.0000 -0.0000 -0.0000 0.0000
 0.9961 32.4150 21.6429 -4.1281 10.6429 4.0027 -5.6241 -2.2942 -6.9765 9.5430 0.0000 0.0000 -21.2755 7.5854 -33.6802 11.9818 -0.0000 0.0000 5.8867 -13.4007 -3.5471 62.0550 -0.0000 0.0000 -2.3374 -5.8417 15.6724 -10.8985 0.0000 -0.0000 1.1228 0.7864 7.8498 -2.4946 4.4625 -18.3438 2.9301 -5.4909 -0.1459 -15.5618 -11.5510 1.4171 -23.6869 6.9730 10.8763 35.6365 -55.0920 -69.1391 -0.0001 -18.5545 -0.0000 -13.9078 7.1820 -6.5286 -0.0000 -0.0000 0.0000 -0.0000 -0.0000 0.0000 -5.6672 -10.3466 -6.2159 5.2204 31.0367 87.2711 -0.0001 19.5919 0.0000 -12.9363 7.1449 -1.3428 -0.0000 0.0000 -0.0000 -0.0000 0.0000 -0.0000
 1.0825 32.2800 20.5304 -4.3984 7.0181 4.4595 -6.8765 0.0421 -7.4571 9.5295 -0.0000 0.0000 -19.7776 8.5490 -33.8100 11.9796 -0.0000 -0.0000 12.3534 -12.5260 -3.5313 54.1222 -0.0000 0.0000 -1.3972 -4.0303 14.9774 -11.2359 0.0000 0.0000 0.2359 2.4965 8.9768 -0.8409 6.0015 -19.6424 2.7356 -5.5017 -0.7662 -16.0327 -11.4312 1.4668 -23.0784 9.0064 11.0660 37.3793 -51.0240 -68.3707 -0.0001 -15.0613 -0.0000 -13.9160 7.5381 -6.3024 -0.0000 0.0000 -0.0000 -0.0000 0.0000 -0.0000 -7.3896 -7.8612 -7.4407 2.8271 33.1148 86.9516 -0.0001 21.2694 0.0000 -12.6449 7.5229 -1.3525 -0.0000 0.0000 -0.0000 -0.0000 0.0000 -0.0000
 1.1264 32.1241 19.2985 -4.3131 2.8392 4.5162 -8.2975 2.4069 -7.2737 8.7411 -0.0000 0.0000 -17.9740 10.2967 -34.3182 12.1991 -0.0000 0.0000 18.0217 -13.0218 -4.2287 42.4608 -0.0000 0.0000 -2.4768 -3.5523 12.4994 -17.4057 0.0000 0.0000 -0.4120 4.1761 10.0360 0.4394 7.5846 -20.2656 2.5233 -5.3928 -1.2816 -16.8650 -10.9046 1.3172 -22.8652 11.1265 11.4962 38.1236 -46.5596 -68.6206 -0.0000 -12.0524 -0.0000 -15.2511 7.8518 -6.1674 -0.0000 -0.0000 0.0000 -0.0000 -0.0000 0.0000 -9.1947 -5.4106 -8.6385 0.3584 34.6626 86.5159 -0.0001 22.9763 0.0000 -12.6937 7.9307 -1.2381 -0.0000 0.0000 -0.0000 -0.0000 0.0000 -0.0000
 1.1017 31.9551 17.8972 -4.0115 -1.7453 4.3405 -9.9565 6.1544 -6.3186 7.7765 -0.0000 0.0000 -16.5778 11.9314 -37.1297 10.7181 -0.0000 -0.0000 21.7235 -14.1930 -5.2864 31.2243 -0.0000 0.0000 -8.1207 -0.2197 8.2433 -21.8448 0.0000 -0.0000 -0.5436 5.8173 10.6902 1.1265 9.1168 -20.1618 2.1615 -4.9622 -1.7514 -17.4954 -10.2652 1.3321 -22.8667 12.9376 12.1065 38.8895 -43.3965 -69.2667 -0.0000 -9.7273 -0.0000 -16.0199 8.3312 -5.5919 -0.0000 0.0000 -0.0000 -0.0000 0.0000 -0.0000 -10.9654 -3.1165 -9.4364 -1.9688 35.8547 85.6462 -0.0001 25.0149 0.0000 -12.5515 8.4153 -1.3128 -0.0000 0.0000 -0.0000 -0.0000 0.0000 -0.0000
 0.9530 31.7903 16.2718 -3.2646 -6.1462 3.0128 -13.1016 9.7716 -3.4293 7.7909 -0.0000 0.0000 -17.0569 14.4501 -42.2470 7.7905 -0.0000 -0.0000 22.9744 -11.5756 -4.4362 23.3163 -0.0000 0.0000 -12.1791 0.1322 7.5003 -22.9797 0.0000 -0.0000 -0.5618 7.1948 11.5836 1.3302 10.2597 -19.1444 1.5676 -4.7282 -2.0338 -18.3154 -8.9161 1.4144 -23.3565 14.1869 12.6247 39.3111 -40.1423 -70.7861 -0.0000 -7.8866 -0.0000 -15.8174 8.6938 -5.9357 -0.0000 0.0000 -0.0000 -0.0000 0.0000 -0.0000 -12.2987 -1.3710 -9.7961 -4.9468 36.8794 84.7253 -0.0001 27.2492 0.0000 -12.1219 8.9069 -1.6268 -0.0000 0.0000 -0.0000 -0.0000 0.0000 -0.0000
 0.7354 31.6460 14.5707 -3.4005 -9.2350 1.0318 -16.3050 11.5034 0.2732 8.6582 -0.0000 0.0000 -19.0904 17.6634 -47.0640 4.7643 0.0000 0.0000 23.9479 -7.4956 -2.1318 17.2456 -0.0000 0.0000 -16.7132 -1.9350 6.7258 -18.6130 0.0000 -0.0000 -0.5092 7.4308 12.3142 2.1703 10.4422 -17.2383 0.9370 -4.2133 -2.1288 -19.3781 -7.2457 1.4174 -23.1216 15.1638 12.8926 38.6600 -38.0175 -73.0550 -0.0000 -6.3677 -0.0000 -17.0077 8.7687 -6.1668 -0.0000 0.0000 -0.0000 -0.0000 0.0000 -0.0000 -13.5984 0.5146 -10.1182 -7.9175 36.8493 84.3727 -0.0001 29.6435 0.0000 -11.9874 9.6548 -2.2932 -0.0000 0.0000 -0.0000 -0.0000 0.0000 -0.0000
 0.4649 31.5140 12.9013 -4.2913 -9.9367 -1.7422 -19.5538 12.2124 4.2613 10.3688 -0.0000 0.0000 -23.8561 17.0495 -47.3402 5.3871 0.0000 0.0000 25.0672 -4.2428 1.7573 12.0564 -0.0000 0.0000 -19.7461 -4.6185 5.4934 -13.3301 0.0000 0.0000 -0.5198 6.6079 12.7897 3.4056 9.6330 -14.3374 0.5784 -4.1347 -1.8176 -20.7825 -5.4976 1.3428 -22.0695 15.3058 12.7684 36.9931 -36.7429 -75.9859 -0.0000 -5.2734 -0.0000 -17.8812 8.9715 -7.2659 -0.0000 0.0000 -0.0000 -0.0000 0.0000 -0.0000 -14.1567 1.1964 -10.3991 -10.7070 36.8227 83.9796 -0.0001 32.7892 0.0000 -12.1913 10.0770 -2.3767 -0.0000 0.0000 -0.0000 -0.0000 0.0000 -0.0000
 0.2408 31.4225 11.2997 -5.0433 -10.1916 -4.0189 -22.0542 11.9730 7.3214 10.9157 -0.0000 0.0000 -27.8735 15.0466 -45.0929 6.6395 -0.0000 0.0000 24.8616 -4.1816 4.6033 9.0615 -0.0000 0.0000 -22.0396 -3.5963 5.8724 -9.0734 0.0000 -0.0000 -0.3000 5.8845 12.6622 4.1597 8.8324 -11.5330 0.7131 -3.9957 -0.9880 -22.6615 -4.2786 1.3061 -21.2724 14.9310 12.6629 35.6747 -36.5367 -78.8162 -0.0000 -4.7677 -0.0000 -18.3198 9.4091 -8.6242 -0.0000 -0.0000 0.0000 -0.0000 -0.0000 0.0000 -14.6610 0.8287 -10.0363 -11.7319 37.2252 82.8697 -0.0002 36.8490 0.0001 -12.6566 10.5548 -2.1652 -0.0000 -0.0000 0.0000 -0.0000 -0.0000 0.0000
 0.0446 31.5055 9.8073 -5.2560 -11.3397 -5.7430 -23.3054 9.8810 10.0009 10.7893 -0.0000 0.0000 -28.2964 14.1757 -41.1183 8.2391 -0.0000 0.0000 22.8544 -1.8607 6.7110 7.9639 -0.0000 0.0000 -22.7369 -4.1176 6.0652 -6.3829 0.0000 -0.0000 -0.4099 5.5404 12.5332 4.6407 8.5303 -9.7012 1.2662 -3.3159 0.2104 -24.7270 -3.6290 1.7067 -21.5067 14.4802 12.5049 35.3244 -37.1920 -80.6965 -0.0000 -4.2010 -0.0000 -18.7088 9.8013 -10.2271 -0.0000 0.0000 -0.0000 -0.0000 0.0000 -0.0000 -14.1320 -0.4407 -8.3711 -12.1690 38.2822 81.1738 -0.0002 40.5741 0.0001 -13.8208 12.0711 -2.1053 -0.0000 0.0000 -0.0000 -0.0000 0.0000 -0.0000
 -0.1134 31.7821 8.4968 -5.5337 -12.4898 -6.7360 -22.9870 7.0541 12.0021 12.1089 -0.0000 0.0000 -26.7197 14.1407 -39.8652 8.4563 -0.0000 -0.0000 20.3199 0.4720 8.1328 8.1557 -0.0000 0.0000 -21.6480 -5.3004 5.4216 -5.4320 0.0000 -0.0000 -0.5190 5.0468 12.0137 4.8425 8.0610 -8.2340 1.7433 -2.1152 1.2180 -25.9119 -3.0263 2.1336 -21.7657 14.1675 12.0972 34.6848 -37.7997 -82.1283 -0.0000 -3.2980 -0.0000 -19.1237 10.0459 -11.1361 -0.0000 -0.0000 0.0000 -0.0000 -0.0000 0.0000 -13.0849 -1.6328 -6.7013 -11.9041 38.4480 80.7134 -0.0002 43.0676 0.0001 -14.1995 14.4834 -2.4794 -0.0000 0.0000 -0.0000 -0.0000 0.0000 -0.0000
